<svg xmlns="http://www.w3.org/2000/svg" version="1.1" xmlns:xlink="http://www.w3.org/1999/xlink" xmlns:svgjs="http://svgjs.dev/svgjs" width="2000" height="767" viewBox="0 0 2000 767"><g transform="matrix(1,0,0,1,-1.2121212121212466,-0.7564792152847417)"><svg viewBox="0 0 396 152" data-background-color="#ffffff" preserveAspectRatio="xMidYMid meet" height="767" width="2000" xmlns="http://www.w3.org/2000/svg" xmlns:xlink="http://www.w3.org/1999/xlink"><g id="tight-bounds" transform="matrix(1,0,0,1,0.2400000000000091,0.14991504657533028)"><svg viewBox="0 0 395.52 151.70016990684934" height="151.70016990684934" width="395.52"><g><svg viewBox="0 0 395.52 151.70016990684934" height="151.70016990684934" width="395.52"><g transform="matrix(1,0,0,1,0,93.75679091141554)"><svg viewBox="0 0 395.52 57.9433789954338" height="57.9433789954338" width="395.52"><g id="textblocktransform"><svg viewBox="0 0 395.52 57.9433789954338" height="57.9433789954338" width="395.52" id="textblock"><g><svg viewBox="0 0 395.52 57.9433789954338" height="57.9433789954338" width="395.52"><g transform="matrix(1,0,0,1,0,0)"><svg width="395.52" viewBox="3.85 -38.05 262.78 38.5" height="57.9433789954338" data-palette-color="#0080ff"><path d="M3.85-34.85L8.4-34.85 8.4 0 3.85 0 3.85-34.85ZM29.5-27.9Q34.5-27.9 37.6-24.88 40.7-21.85 40.7-16.15L40.7-16.15 40.7 0 36.2 0 36.2-15.5Q36.2-19.6 34.15-21.78 32.1-23.95 28.55-23.95L28.55-23.95Q24.95-23.95 22.82-21.7 20.7-19.45 20.7-15.15L20.7-15.15 20.7 0 16.15 0 16.15-27.4 20.7-27.4 20.7-23.5Q22.05-25.6 24.37-26.75 26.7-27.9 29.5-27.9L29.5-27.9ZM57.84 0.45Q54.7 0.45 52.2-0.63 49.7-1.7 48.25-3.63 46.8-5.55 46.65-8.05L46.65-8.05 51.34-8.05Q51.55-6 53.27-4.7 55-3.4 57.8-3.4L57.8-3.4Q60.4-3.4 61.9-4.55 63.4-5.7 63.4-7.45L63.4-7.45Q63.4-9.25 61.8-10.13 60.2-11 56.84-11.85L56.84-11.85Q53.8-12.65 51.87-13.48 49.95-14.3 48.57-15.93 47.2-17.55 47.2-20.2L47.2-20.2Q47.2-22.3 48.45-24.05 49.7-25.8 52-26.83 54.3-27.85 57.25-27.85L57.25-27.85Q61.8-27.85 64.59-25.55 67.4-23.25 67.59-19.25L67.59-19.25 63.05-19.25Q62.9-21.4 61.32-22.7 59.75-24 57.09-24L57.09-24Q54.65-24 53.2-22.95 51.75-21.9 51.75-20.2L51.75-20.2Q51.75-18.85 52.62-17.98 53.5-17.1 54.82-16.57 56.15-16.05 58.5-15.4L58.5-15.4Q61.45-14.6 63.3-13.83 65.15-13.05 66.47-11.5 67.8-9.95 67.84-7.45L67.84-7.45Q67.84-5.2 66.59-3.4 65.34-1.6 63.07-0.58 60.8 0.45 57.84 0.45L57.84 0.45ZM86.94-23.65L79.79-23.65 79.79-7.5Q79.79-5.5 80.64-4.67 81.49-3.85 83.59-3.85L83.59-3.85 86.94-3.85 86.94 0 82.84 0Q79.04 0 77.14-1.75 75.24-3.5 75.24-7.5L75.24-7.5 75.24-23.65 71.69-23.65 71.69-27.4 75.24-27.4 75.24-34.3 79.79-34.3 79.79-27.4 86.94-27.4 86.94-23.65ZM90.74-13.8Q90.74-18 92.44-21.18 94.14-24.35 97.12-26.1 100.09-27.85 103.74-27.85L103.74-27.85Q107.34-27.85 109.99-26.3 112.64-24.75 113.94-22.4L113.94-22.4 113.94-27.4 118.54-27.4 118.54 0 113.94 0 113.94-5.1Q112.59-2.7 109.92-1.13 107.24 0.45 103.69 0.45L103.69 0.45Q100.04 0.45 97.09-1.35 94.14-3.15 92.44-6.4 90.74-9.65 90.74-13.8L90.74-13.8ZM113.94-13.75Q113.94-16.85 112.69-19.15 111.44-21.45 109.32-22.68 107.19-23.9 104.64-23.9L104.64-23.9Q102.09-23.9 99.99-22.7 97.89-21.5 96.64-19.2 95.39-16.9 95.39-13.8L95.39-13.8Q95.39-10.65 96.64-8.33 97.89-6 99.99-4.78 102.09-3.55 104.64-3.55L104.64-3.55Q107.19-3.55 109.32-4.78 111.44-6 112.69-8.33 113.94-10.65 113.94-13.75L113.94-13.75ZM156.74-34.6L161.59-34.6 161.59 0 157.04 0 157.04-25.8 145.54 0 142.34 0 130.79-25.85 130.79 0 126.24 0 126.24-34.6 131.14-34.6 143.94-6 156.74-34.6ZM181.24 0.45Q177.39 0.45 174.26-1.3 171.14-3.05 169.36-6.28 167.59-9.5 167.59-13.75L167.59-13.75Q167.59-17.95 169.41-21.18 171.24-24.4 174.39-26.13 177.54-27.85 181.44-27.85L181.44-27.85Q185.34-27.85 188.49-26.13 191.64-24.4 193.46-21.2 195.29-18 195.29-13.75L195.29-13.75Q195.29-9.5 193.41-6.28 191.54-3.05 188.34-1.3 185.14 0.45 181.24 0.45L181.24 0.45ZM181.24-3.55Q183.69-3.55 185.84-4.7 187.99-5.85 189.31-8.15 190.64-10.45 190.64-13.75L190.64-13.75Q190.64-17.05 189.34-19.35 188.04-21.65 185.94-22.78 183.84-23.9 181.39-23.9L181.39-23.9Q178.89-23.9 176.81-22.78 174.74-21.65 173.49-19.35 172.24-17.05 172.24-13.75L172.24-13.75Q172.24-10.4 173.46-8.1 174.69-5.8 176.74-4.67 178.79-3.55 181.24-3.55L181.24-3.55ZM202.93-27.4L211.48-4.2 219.98-27.4 224.83-27.4 214.08 0 208.78 0 198.03-27.4 202.93-27.4ZM231.68-31.85Q230.38-31.85 229.48-32.75 228.58-33.65 228.58-34.95L228.58-34.95Q228.58-36.25 229.48-37.15 230.38-38.05 231.68-38.05L231.68-38.05Q232.93-38.05 233.81-37.15 234.68-36.25 234.68-34.95L234.68-34.95Q234.68-33.65 233.81-32.75 232.93-31.85 231.68-31.85L231.68-31.85ZM229.33-27.4L233.88-27.4 233.88 0 229.33 0 229.33-27.4ZM266.63-14.75Q266.63-13.45 266.48-12L266.48-12 244.58-12Q244.83-7.95 247.35-5.68 249.88-3.4 253.48-3.4L253.48-3.4Q256.43-3.4 258.4-4.78 260.38-6.15 261.18-8.45L261.18-8.45 266.08-8.45Q264.98-4.5 261.68-2.02 258.38 0.45 253.48 0.45L253.48 0.45Q249.58 0.45 246.5-1.3 243.43-3.05 241.68-6.28 239.93-9.5 239.93-13.75L239.93-13.75Q239.93-18 241.63-21.2 243.33-24.4 246.4-26.13 249.48-27.85 253.48-27.85L253.48-27.85Q257.38-27.85 260.38-26.15 263.38-24.45 265-21.48 266.63-18.5 266.63-14.75L266.63-14.75ZM261.93-15.7Q261.93-18.3 260.78-20.18 259.63-22.05 257.65-23.03 255.68-24 253.28-24L253.28-24Q249.83-24 247.4-21.8 244.98-19.6 244.63-15.7L244.63-15.7 261.93-15.7Z" opacity="1" transform="matrix(1,0,0,1,0,0)" fill="#000000" class="wordmark-text-0" data-fill-palette-color="primary" id="text-0"></path></svg></g></svg></g></svg></g></svg></g><g transform="matrix(1,0,0,1,157.7122275864028,0)"><svg viewBox="0 0 80.09554482719436 80.07774977168951" height="80.07774977168951" width="80.09554482719436"><g><svg xmlns="http://www.w3.org/2000/svg" xmlns:xlink="http://www.w3.org/1999/xlink" version="1.1" x="0" y="0" viewBox="13.991999999999997 14 72.01600000000002 72" enable-background="new 0 0 100 100" xml:space="preserve" height="80.07774977168951" width="80.09554482719436" class="icon-icon-0" data-fill-palette-color="accent" id="icon-0"><g fill="#010c80" data-fill-palette-color="accent"><path fill="#000000" d="M49.992 14c-19.86 0-36 16.14-36 36 0 19.74 15.9 35.76 35.58 36 0.06 0 0.06 0 0.12 0h0.3 35.161c1.14 0 1.14-1.62 0-1.62h-24.54c14.699-4.5 25.38-18.18 25.38-34.38C85.993 30.14 69.853 14 49.992 14L49.992 14zM49.992 15.62c19.021 0 34.381 15.36 34.381 34.38 0 19.02-15.36 34.38-34.381 34.38-19.02 0-34.38-15.36-34.38-34.38C15.612 30.98 30.972 15.62 49.992 15.62L49.992 15.62zM49.992 19.28c-16.98 0-30.72 13.74-30.72 30.72 0 16.98 13.74 30.72 30.72 30.72 16.98 0 30.721-13.739 30.721-30.72C80.713 33.02 66.973 19.28 49.992 19.28L49.992 19.28zM49.992 20.9c16.081 0 29.101 13.02 29.101 29.1s-13.02 29.1-29.101 29.1c-16.08 0-29.1-13.02-29.1-29.1S33.913 20.9 49.992 20.9L49.992 20.9zM49.992 23.72c-4.98 0-9 4.02-9 9s4.02 9 9 9c4.98 0 9.001-4.02 9.001-9S54.973 23.72 49.992 23.72L49.992 23.72zM49.992 25.28c4.141 0 7.44 3.3 7.44 7.44 0 4.08-3.3 7.44-7.44 7.44-4.14 0-7.44-3.36-7.44-7.44C42.552 28.58 45.853 25.28 49.992 25.28L49.992 25.28zM32.712 41c-4.98 0-9 4.02-9 9 0 4.98 4.02 9 9 9s9-4.02 9-9C41.712 45.02 37.692 41 32.712 41L32.712 41zM67.272 41c-4.979 0-9 4.02-9 9 0 4.98 4.021 9 9 9 4.98 0 9-4.02 9-9C76.272 45.02 72.253 41 67.272 41L67.272 41zM32.712 42.56c4.08 0 7.44 3.3 7.44 7.44 0 4.14-3.36 7.44-7.44 7.44-4.14 0-7.44-3.301-7.44-7.44C25.272 45.86 28.572 42.56 32.712 42.56L32.712 42.56zM67.272 42.56c4.141 0 7.44 3.3 7.44 7.44 0 4.14-3.3 7.44-7.44 7.44-4.08 0-7.439-3.301-7.439-7.44C59.833 45.86 63.192 42.56 67.272 42.56L67.272 42.56zM49.992 58.28c-4.98 0-9 4.02-9 9 0 4.979 4.02 9 9 9 4.98 0 9.001-4.021 9.001-9C58.993 62.3 54.973 58.28 49.992 58.28L49.992 58.28zM49.992 59.84c4.141 0 7.44 3.36 7.44 7.44 0 4.14-3.3 7.439-7.44 7.439-4.14 0-7.44-3.3-7.44-7.439C42.552 63.2 45.853 59.84 49.992 59.84L49.992 59.84z" data-fill-palette-color="accent"></path></g></svg></g></svg></g><g></g></svg></g><defs></defs></svg><rect width="395.52" height="151.70016990684934" fill="none" stroke="none" visibility="hidden"></rect></g></svg></g></svg>